<svg width="48" height="49" viewBox="0 0 48 49" fill="none" xmlns="http://www.w3.org/2000/svg">
<path d="M32.7498 6.75164C35.0685 6.75857 37.2902 7.68273 38.9298 9.32229C40.5694 10.9619 41.4935 13.1836 41.5005 15.5023V33.0016C41.4935 35.3203 40.5694 37.5421 38.9298 39.1816C37.2902 40.8212 35.0685 41.7453 32.7498 41.7523H15.2504C12.9318 41.7453 10.71 40.8212 9.07047 39.1816C7.43091 37.5421 6.50675 35.3203 6.49983 33.0016V15.5023C6.50675 13.1836 7.43091 10.9619 9.07047 9.32229C10.71 7.68273 12.9318 6.75857 15.2504 6.75164H32.7498ZM32.7498 3.25195H15.2504C8.51264 3.25195 3.00014 8.76445 3.00014 15.5023V33.0016C3.00014 39.7395 8.51264 45.252 15.2504 45.252H32.7498C39.4876 45.252 45.0001 39.7395 45.0001 33.0016V15.5023C45.0001 8.76445 39.4876 3.25195 32.7498 3.25195Z" fill="white"/>
<path d="M35.3749 15.5024C34.8557 15.5024 34.3482 15.3485 33.9165 15.0601C33.4848 14.7716 33.1484 14.3616 32.9497 13.882C32.751 13.4023 32.699 12.8745 32.8003 12.3653C32.9016 11.8561 33.1516 11.3884 33.5187 11.0213C33.8858 10.6542 34.3535 10.4042 34.8627 10.3029C35.3719 10.2016 35.8997 10.2536 36.3794 10.4523C36.8591 10.6509 37.269 10.9874 37.5575 11.4191C37.8459 11.8507 37.9999 12.3583 37.9999 12.8774C38.0006 13.2224 37.9332 13.564 37.8016 13.8829C37.6699 14.2017 37.4766 14.4914 37.2327 14.7353C36.9888 14.9792 36.6991 15.1725 36.3803 15.3041C36.0615 15.4358 35.7198 15.5032 35.3749 15.5024ZM24.0002 17.2518C25.3847 17.2518 26.7381 17.6624 27.8893 18.4316C29.0405 19.2008 29.9378 20.2941 30.4676 21.5732C30.9975 22.8524 31.1361 24.2599 30.866 25.6178C30.5959 26.9757 29.9292 28.2231 28.9501 29.2021C27.9711 30.1811 26.7238 30.8478 25.3659 31.1179C24.0079 31.388 22.6004 31.2494 21.3213 30.7196C20.0421 30.1897 18.9488 29.2925 18.1796 28.1413C17.4104 26.9901 16.9999 25.6367 16.9999 24.2521C17.0018 22.3961 17.74 20.6167 19.0524 19.3044C20.3648 17.992 22.1442 17.2538 24.0002 17.2518ZM24.0002 13.7521C21.9235 13.7521 19.8934 14.3679 18.1667 15.5217C16.44 16.6755 15.0942 18.3153 14.2994 20.234C13.5047 22.1526 13.2968 24.2638 13.7019 26.3006C14.1071 28.3374 15.1071 30.2083 16.5756 31.6767C18.044 33.1452 19.9149 34.1452 21.9517 34.5504C23.9885 34.9555 26.0997 34.7476 28.0183 33.9529C29.937 33.1581 31.5768 31.8123 32.7306 30.0856C33.8844 28.3589 34.5002 26.3288 34.5002 24.2521C34.5002 21.4674 33.3939 18.7966 31.4248 16.8275C29.4557 14.8584 26.7849 13.7521 24.0002 13.7521Z" fill="white"/>
</svg>
