<svg width="49" height="49" viewBox="0 0 49 49" fill="none" xmlns="http://www.w3.org/2000/svg">
<path d="M47.3455 10.9043C45.6575 11.6378 43.8715 12.121 42.044 12.3387C43.9646 11.214 45.409 9.42734 46.1062 7.31369C44.2903 8.37549 42.307 9.1205 40.2412 9.51681C39.3712 8.60512 38.325 7.87985 37.1661 7.38507C36.0072 6.8903 34.7597 6.63636 33.4996 6.63869C28.3977 6.63869 24.269 10.7074 24.269 15.7231C24.2654 16.4207 24.3453 17.1163 24.5071 17.7949C20.8487 17.6234 17.2663 16.6902 13.9893 15.0549C10.7122 13.4196 7.81256 11.1182 5.47585 8.29806C4.65608 9.68005 4.22254 11.2569 4.22054 12.8637C4.22054 16.0137 5.86398 18.7981 8.34554 20.4293C6.87528 20.3944 5.43516 20.0053 4.14741 19.2949V19.4074C4.14741 23.8137 7.33491 27.4793 11.5537 28.3137C10.7603 28.5252 9.94282 28.6323 9.12179 28.6324C8.53921 28.6335 7.95795 28.5769 7.38648 28.4637C8.55929 32.0731 11.9727 34.6981 16.0162 34.7731C12.7306 37.3052 8.69674 38.6738 4.54866 38.6637C3.81237 38.6626 3.07676 38.6188 2.34554 38.5324C6.56539 41.227 11.4706 42.6523 16.4774 42.6387C33.4799 42.6387 42.7687 28.7918 42.7687 16.7824C42.7687 16.3887 42.7583 15.9949 42.7396 15.6106C44.5425 14.3281 46.1022 12.7344 47.3455 10.9043Z" fill="white"/>
</svg>
